<?xml version="1.0" encoding="iso-8859-1"?>
<!-- Uploaded to: SVG Repo, www.svgrepo.com, Generator: SVG Repo Mixer Tools -->
<svg fill="#000000" height="800px" width="800px" version="1.1" id="Layer_1" xmlns="http://www.w3.org/2000/svg" xmlns:xlink="http://www.w3.org/1999/xlink" 
	 viewBox="0 0 512 512" xml:space="preserve">
<g>
	<g>
		<path d="M395.13,217.043c-74.458,0-73.929,0.794-83.956-2.411c-0.068-0.022-0.136-0.044-0.204-0.066
			c-25.681-8.33-26.685-20.115-76.998-120.74c-2.494-6.065-8.458-10.338-15.42-10.349c-0.009,0-0.018,0-0.027,0H16.696
			C7.475,83.478,0,90.953,0,100.174v278.261c0,27.618,22.469,50.087,50.087,50.087h411.826c27.618,0,50.087-22.469,50.087-50.087
			v-44.522C512,269.471,459.572,217.043,395.13,217.043z M389.565,250.435h5.565c44.158,0,80.396,34.47,83.272,77.913h-88.838
			V250.435z M33.391,116.87h174.77l11.786,23.572l-48.1,48.1c-6.52,6.519-6.52,17.091,0,23.611c3.259,3.26,7.532,4.891,11.805,4.891
			c4.273,0,8.546-1.631,11.805-4.891l40.23-40.23l13.318,26.635l-27.198,48.525c-4.508,8.044-1.643,18.218,6.401,22.727
			c2.582,1.447,5.384,2.135,8.147,2.135c5.845,0,11.518-3.075,14.58-8.536l19.416-34.641c5.72,5.22,12.125,9.599,19.04,13.022
			v36.471c0,9.22,7.475,16.696,16.696,16.696c9.22,0,16.696-7.475,16.696-16.696v-27.918c1.247,0.055,2.497,0.092,3.753,0.092
			h29.639v77.913H33.391V116.87z M478.609,378.435c0,9.206-7.49,16.696-16.696,16.696H50.087c-9.206,0-16.696-7.49-16.696-16.696
			v-16.696h445.217V378.435z"/>
	</g>
</g>
</svg>